<?xml version="1.0" encoding="UTF-8" standalone="no"?>
<!-- Created with Inkscape (http://www.inkscape.org/) -->

<svg
   width="11.493062mm"
   height="11.209467mm"
   viewBox="0 0 11.493062 11.209467"
   version="1.1"
   id="svg5"
   xmlns="http://www.w3.org/2000/svg"
   xmlns:svg="http://www.w3.org/2000/svg">
  <defs
     id="defs2">
    <clipPath
       clipPathUnits="userSpaceOnUse"
       id="clipPath840">
      <path
         d="M 0,551.986 H 530.973 V 0 H 0 Z"
         id="path838" />
    </clipPath>
  </defs>
  <g
     id="layer1"
     transform="translate(-34.810464,-31.207655)">
    <path
       d="m 40.556508,31.207655 c -3.173236,0 -5.746044,2.572808 -5.746044,5.74675 0,2.538941 1.646414,4.69265 3.929944,5.452886 0.287514,0.05256 0.392289,-0.124883 0.392289,-0.277283 0,-0.136173 -0.0049,-0.49777 -0.0078,-0.977195 -1.598436,0.347133 -1.935692,-0.770467 -1.935692,-0.770467 -0.261408,-0.663575 -0.638175,-0.840316 -0.638175,-0.840316 -0.521758,-0.356659 0.03951,-0.349603 0.03951,-0.349603 0.576792,0.04092 0.880181,0.592314 0.880181,0.592314 0.512586,0.878064 1.345141,0.624417 1.672519,0.477661 0.05221,-0.371475 0.200378,-0.624769 0.364772,-0.76835 -1.275997,-0.144992 -2.617611,-0.638175 -2.617611,-2.840214 0,-0.627239 0.224014,-1.140178 0.591609,-1.541991 -0.05927,-0.145345 -0.25647,-0.729545 0.05609,-1.520825 0,0 0.4826,-0.154517 1.580445,0.589138 0.458258,-0.127352 0.95003,-0.191205 1.438628,-0.193322 0.487891,0.0021 0.979663,0.06597 1.438627,0.193322 1.097139,-0.743655 1.578681,-0.589138 1.578681,-0.589138 0.313619,0.79128 0.116416,1.37548 0.05715,1.520825 0.3683,0.401813 0.590903,0.914752 0.590903,1.541991 0,2.207683 -1.343731,2.693458 -2.623961,2.835628 0.206375,0.177447 0.390172,0.528108 0.390172,1.06433 0,0.767998 -0.0071,1.387828 -0.0071,1.576212 0,0.153811 0.103364,0.332669 0.395111,0.276577 2.281767,-0.761647 3.92677,-2.913944 3.92677,-5.45218 0,-3.173942 -2.573161,-5.74675 -5.747103,-5.74675"
       style="fill:#1b1817;fill-opacity:1;fill-rule:evenodd;stroke:none;stroke-width:0.352778"
       id="path844" />
  </g>
</svg>
